<svg width="277" height="83" viewBox="0 0 277 83" fill="none" xmlns="http://www.w3.org/2000/svg">
<line x1="0.996656" y1="69.5757" x2="276.997" y2="69.5019" stroke="#F0CD69" stroke-width="25"/>
<path d="M170.575 40.1025H167.353V35H159.345V40.1025H156.122V32.0703H157.172C158.848 27.6188 159.923 22.6465 160.395 17.1533H168.549V32.0703H170.575V40.1025ZM165.229 32.0703V20.0708H163.202C162.999 22.0483 162.669 24.1032 162.213 26.2354C161.766 28.3594 161.237 30.3044 160.626 32.0703H165.229ZM175.592 21.4014V26.6992H179.267V21.4014H182.538V35H179.267V29.2993H175.592V35H172.345V21.4014H175.592ZM190.302 35.2441C188.601 35.2441 187.258 34.6419 186.273 33.4375C185.297 32.2249 184.809 30.5119 184.809 28.2983C184.809 26.0522 185.252 24.2985 186.139 23.0371C187.026 21.7757 188.263 21.145 189.85 21.145C191.331 21.145 192.499 21.6862 193.354 22.7686C194.208 23.8428 194.635 25.3524 194.635 27.2974V29.0308H188.104C188.129 30.2433 188.377 31.1466 188.849 31.7407C189.321 32.3267 189.972 32.6196 190.802 32.6196C191.86 32.6196 192.943 32.29 194.049 31.6309V34.3042C193.008 34.9308 191.758 35.2441 190.302 35.2441ZM189.826 23.6475C189.362 23.6475 188.979 23.8957 188.678 24.3921C188.377 24.8804 188.202 25.6413 188.153 26.6748H191.449C191.433 25.682 191.282 24.9292 190.998 24.4165C190.713 23.9038 190.322 23.6475 189.826 23.6475ZM206.476 24.9292C206.476 25.6942 206.248 26.333 205.792 26.8457C205.345 27.3503 204.69 27.6758 203.827 27.8223V27.9199C204.779 28.042 205.524 28.3716 206.061 28.9087C206.606 29.4377 206.879 30.1253 206.879 30.9717C206.879 32.2738 206.419 33.2707 205.5 33.9624C204.58 34.6541 203.266 35 201.557 35H196.784V21.4014H201.532C204.828 21.4014 206.476 22.5773 206.476 24.9292ZM203.51 30.7764C203.51 30.1986 203.323 29.7835 202.948 29.5312C202.574 29.279 202.008 29.1528 201.251 29.1528H200.031V32.5708H201.3C202.773 32.5708 203.51 31.9727 203.51 30.7764ZM203.156 25.2222C203.156 24.327 202.562 23.8794 201.374 23.8794H200.031V26.748H201.007C201.723 26.748 202.261 26.6341 202.619 26.4062C202.977 26.1702 203.156 25.7756 203.156 25.2222ZM212.14 21.4014V26.6992H215.814V21.4014H219.086V35H215.814V29.2993H212.14V35H208.893V21.4014H212.14ZM224.848 21.4014V27.7002C224.848 28.4814 224.75 29.7795 224.555 31.5942L228.974 21.4014H232.953V35H229.926V28.6035C229.926 27.6432 230.019 26.3493 230.207 24.7217L225.775 35H221.833V21.4014H224.848ZM242.45 21.4014H245.868L242.145 27.8467L246.1 35H242.523L238.971 28.0054V35H235.724V21.4014H238.971V27.8955L242.45 21.4014Z" fill="#A64639"/>
<path d="M42.0815 27.8613C42.0815 31.4473 41.0137 34.4268 38.8779 36.7998C36.7686 39.1465 33.7231 40.7285 29.7417 41.5459V41.8623C34.0659 42.3896 37.4146 43.8398 39.7876 46.2129C42.187 48.5596 43.3867 51.6973 43.3867 55.626C43.3867 60.9521 41.6729 65.1445 38.2451 68.2031C34.8438 71.2617 30.2031 72.791 24.3232 72.791C18.1006 72.791 13.249 71.8813 9.76855 70.062V60.6489C13.6709 62.811 17.8237 63.8921 22.2271 63.8921C29.1353 63.8921 32.5894 60.873 32.5894 54.835C32.5894 52.0928 31.5874 50.0098 29.5835 48.5859C27.606 47.1357 24.666 46.4106 20.7637 46.4106H16.8877V37.5908H20.3682C24.1914 37.5908 27.0127 36.9316 28.832 35.6133C30.6514 34.2686 31.561 32.1987 31.561 29.4038C31.561 27.1626 30.9546 25.4487 29.7417 24.2622C28.5288 23.0493 26.7754 22.4429 24.4814 22.4429C20.9746 22.4429 17.6523 23.8667 14.5146 26.7144L9.4126 19.5161C12.0229 17.2749 14.6729 15.6929 17.3623 14.77C20.0518 13.8208 23.0444 13.3462 26.3403 13.3462C31.1128 13.3462 34.9229 14.6777 37.7705 17.3408C40.6445 19.9775 42.0815 23.4844 42.0815 27.8613ZM91.1245 43.0093C91.1245 52.5806 89.3315 59.937 85.7456 65.0786C82.1597 70.2202 77.0312 72.791 70.3604 72.791C63.6631 72.791 58.5215 70.2334 54.9355 65.1182C51.3496 59.9766 49.5566 52.5806 49.5566 42.9302C49.5566 33.3589 51.3496 26.0288 54.9355 20.9399C58.5215 15.8247 63.6895 13.2671 70.4395 13.2671C77.1104 13.2671 82.2256 15.8379 85.7852 20.9795C89.3447 26.0947 91.1245 33.438 91.1245 43.0093ZM60.5518 43.0093C60.5518 49.6011 61.3823 54.624 63.0435 58.0781C64.7046 61.5322 67.1436 63.2593 70.3604 63.2593C76.8467 63.2593 80.0898 56.5093 80.0898 43.0093C80.0898 29.5093 76.873 22.7593 70.4395 22.7593C67.1699 22.7593 64.7046 24.4863 63.0435 27.9404C61.3823 31.3682 60.5518 36.3911 60.5518 43.0093ZM108.21 42.0205L94.0117 14.1768H105.046L118.217 42.1787V14.1768H128.263V42.1787L141.473 14.1768H152.586L138.388 41.9414L152.824 72H141.156L128.263 42.6929V72H118.217V42.6929L105.442 72H93.7744L108.21 42.0205ZM163.782 39.9072V52.4102H172.453V39.9072H180.174V72H172.453V58.5464H163.782V72H156.119V39.9072H163.782ZM193.771 39.9072V54.7725C193.771 56.6162 193.541 59.6795 193.08 63.9624L203.509 39.9072H212.9V72H205.756V56.9043C205.756 54.638 205.977 51.5843 206.418 47.7432L195.961 72H186.656V39.9072H193.771ZM235.313 39.9072H243.38L234.593 55.1182L243.927 72H235.486L227.103 55.4927V72H219.44V39.9072H227.103V55.2334L235.313 39.9072ZM262.999 72L261.472 67.6211H261.299C260.166 69.5033 258.994 70.7996 257.784 71.5103C256.574 72.2209 255.047 72.5762 253.204 72.5762C250.841 72.5762 248.978 71.6927 247.615 69.9258C246.27 68.1589 245.598 65.7005 245.598 62.5508C245.598 59.1706 246.52 56.6642 248.364 55.0317C250.227 53.38 253.002 52.4678 256.689 52.2949L260.953 52.1221V49.8174C260.953 46.8213 259.657 45.3232 257.064 45.3232C255.143 45.3232 252.935 46.0723 250.438 47.5703L247.788 42.2695C250.976 40.2529 254.442 39.2446 258.188 39.2446C261.587 39.2446 264.17 40.2241 265.937 42.1831C267.723 44.1229 268.616 46.8789 268.616 50.4512V72H262.999ZM256.344 66.584C257.746 66.584 258.86 65.9598 259.686 64.7114C260.531 63.4438 260.953 61.7633 260.953 59.6699V56.9619L258.591 57.0771C256.843 57.1732 255.556 57.6725 254.73 58.5752C253.924 59.4779 253.521 60.8223 253.521 62.6084C253.521 65.2588 254.462 66.584 256.344 66.584Z" fill="white"/>
</svg>
