<svg width="272" height="82" viewBox="0 0 272 82" fill="none" xmlns="http://www.w3.org/2000/svg">
<line x1="2" y1="71" x2="266" y2="71" stroke="#F0CD69" stroke-width="22"/>
<path d="M165.575 40.1025H162.353V35H154.345V40.1025H151.122V32.0703H152.172C153.848 27.6188 154.923 22.6465 155.395 17.1533H163.549V32.0703H165.575V40.1025ZM160.229 32.0703V20.0708H158.202C157.999 22.0483 157.669 24.1032 157.213 26.2354C156.766 28.3594 156.237 30.3044 155.626 32.0703H160.229ZM170.592 21.4014V26.6992H174.267V21.4014H177.538V35H174.267V29.2993H170.592V35H167.345V21.4014H170.592ZM185.302 35.2441C183.601 35.2441 182.258 34.6419 181.273 33.4375C180.297 32.2249 179.809 30.5119 179.809 28.2983C179.809 26.0522 180.252 24.2985 181.139 23.0371C182.026 21.7757 183.263 21.145 184.85 21.145C186.331 21.145 187.499 21.6862 188.354 22.7686C189.208 23.8428 189.635 25.3524 189.635 27.2974V29.0308H183.104C183.129 30.2433 183.377 31.1466 183.849 31.7407C184.321 32.3267 184.972 32.6196 185.802 32.6196C186.86 32.6196 187.943 32.29 189.049 31.6309V34.3042C188.008 34.9308 186.758 35.2441 185.302 35.2441ZM184.826 23.6475C184.362 23.6475 183.979 23.8957 183.678 24.3921C183.377 24.8804 183.202 25.6413 183.153 26.6748H186.449C186.433 25.682 186.282 24.9292 185.998 24.4165C185.713 23.9038 185.322 23.6475 184.826 23.6475ZM201.476 24.9292C201.476 25.6942 201.248 26.333 200.792 26.8457C200.345 27.3503 199.69 27.6758 198.827 27.8223V27.9199C199.779 28.042 200.524 28.3716 201.061 28.9087C201.606 29.4377 201.879 30.1253 201.879 30.9717C201.879 32.2738 201.419 33.2707 200.5 33.9624C199.58 34.6541 198.266 35 196.557 35H191.784V21.4014H196.532C199.828 21.4014 201.476 22.5773 201.476 24.9292ZM198.51 30.7764C198.51 30.1986 198.323 29.7835 197.948 29.5312C197.574 29.279 197.008 29.1528 196.251 29.1528H195.031V32.5708H196.3C197.773 32.5708 198.51 31.9727 198.51 30.7764ZM198.156 25.2222C198.156 24.327 197.562 23.8794 196.374 23.8794H195.031V26.748H196.007C196.723 26.748 197.261 26.6341 197.619 26.4062C197.977 26.1702 198.156 25.7756 198.156 25.2222ZM207.14 21.4014V26.6992H210.814V21.4014H214.086V35H210.814V29.2993H207.14V35H203.893V21.4014H207.14ZM219.848 21.4014V27.7002C219.848 28.4814 219.75 29.7795 219.555 31.5942L223.974 21.4014H227.953V35H224.926V28.6035C224.926 27.6432 225.019 26.3493 225.207 24.7217L220.775 35H216.833V21.4014H219.848ZM237.45 21.4014H240.868L237.145 27.8467L241.1 35H237.523L233.971 28.0054V35H230.724V21.4014H233.971V27.8955L237.45 21.4014Z" fill="#A64639"/>
<g filter="url(#filter0_ddd)">
<path d="M37.0815 27.8613C37.0815 31.4473 36.0137 34.4268 33.8779 36.7998C31.7686 39.1465 28.7231 40.7285 24.7417 41.5459V41.8623C29.0659 42.3896 32.4146 43.8398 34.7876 46.2129C37.187 48.5596 38.3867 51.6973 38.3867 55.626C38.3867 60.9521 36.6729 65.1445 33.2451 68.2031C29.8438 71.2617 25.2031 72.791 19.3232 72.791C13.1006 72.791 8.24902 71.8813 4.76855 70.062V60.6489C8.6709 62.811 12.8237 63.8921 17.2271 63.8921C24.1353 63.8921 27.5894 60.873 27.5894 54.835C27.5894 52.0928 26.5874 50.0098 24.5835 48.5859C22.606 47.1357 19.666 46.4106 15.7637 46.4106H11.8877V37.5908H15.3682C19.1914 37.5908 22.0127 36.9316 23.832 35.6133C25.6514 34.2686 26.561 32.1987 26.561 29.4038C26.561 27.1626 25.9546 25.4487 24.7417 24.2622C23.5288 23.0493 21.7754 22.4429 19.4814 22.4429C15.9746 22.4429 12.6523 23.8667 9.51465 26.7144L4.4126 19.5161C7.02295 17.2749 9.67285 15.6929 12.3623 14.77C15.0518 13.8208 18.0444 13.3462 21.3403 13.3462C26.1128 13.3462 29.9229 14.6777 32.7705 17.3408C35.6445 19.9775 37.0815 23.4844 37.0815 27.8613ZM86.1245 43.0093C86.1245 52.5806 84.3315 59.937 80.7456 65.0786C77.1597 70.2202 72.0312 72.791 65.3604 72.791C58.6631 72.791 53.5215 70.2334 49.9355 65.1182C46.3496 59.9766 44.5566 52.5806 44.5566 42.9302C44.5566 33.3589 46.3496 26.0288 49.9355 20.9399C53.5215 15.8247 58.6895 13.2671 65.4395 13.2671C72.1104 13.2671 77.2256 15.8379 80.7852 20.9795C84.3447 26.0947 86.1245 33.438 86.1245 43.0093ZM55.5518 43.0093C55.5518 49.6011 56.3823 54.624 58.0435 58.0781C59.7046 61.5322 62.1436 63.2593 65.3604 63.2593C71.8467 63.2593 75.0898 56.5093 75.0898 43.0093C75.0898 29.5093 71.873 22.7593 65.4395 22.7593C62.1699 22.7593 59.7046 24.4863 58.0435 27.9404C56.3823 31.3682 55.5518 36.3911 55.5518 43.0093ZM103.21 42.0205L89.0117 14.1768H100.046L113.217 42.1787V14.1768H123.263V42.1787L136.473 14.1768H147.586L133.388 41.9414L147.824 72H136.156L123.263 42.6929V72H113.217V42.6929L100.442 72H88.7744L103.21 42.0205ZM158.782 39.9072V52.4102H167.453V39.9072H175.174V72H167.453V58.5464H158.782V72H151.119V39.9072H158.782ZM188.771 39.9072V54.7725C188.771 56.6162 188.541 59.6795 188.08 63.9624L198.509 39.9072H207.9V72H200.756V56.9043C200.756 54.638 200.977 51.5843 201.418 47.7432L190.961 72H181.656V39.9072H188.771ZM230.313 39.9072H238.38L229.593 55.1182L238.927 72H230.486L222.103 55.4927V72H214.44V39.9072H222.103V55.2334L230.313 39.9072ZM257.999 72L256.472 67.6211H256.299C255.166 69.5033 253.994 70.7996 252.784 71.5103C251.574 72.2209 250.047 72.5762 248.204 72.5762C245.841 72.5762 243.978 71.6927 242.615 69.9258C241.27 68.1589 240.598 65.7005 240.598 62.5508C240.598 59.1706 241.52 56.6642 243.364 55.0317C245.227 53.38 248.002 52.4678 251.689 52.2949L255.953 52.1221V49.8174C255.953 46.8213 254.657 45.3232 252.064 45.3232C250.143 45.3232 247.935 46.0723 245.438 47.5703L242.788 42.2695C245.976 40.2529 249.442 39.2446 253.188 39.2446C256.587 39.2446 259.17 40.2241 260.937 42.1831C262.723 44.1229 263.616 46.8789 263.616 50.4512V72H257.999ZM251.344 66.584C252.746 66.584 253.86 65.9598 254.686 64.7114C255.531 63.4438 255.953 61.7633 255.953 59.6699V56.9619L253.591 57.0771C251.843 57.1732 250.556 57.6725 249.73 58.5752C248.924 59.4779 248.521 60.8223 248.521 62.6084C248.521 65.2588 249.462 66.584 251.344 66.584Z" fill="white"/>
</g>
<defs>
<filter id="filter0_ddd" x="0.412598" y="13.2671" width="267.204" height="67.5239" filterUnits="userSpaceOnUse" color-interpolation-filters="sRGB">
<feFlood flood-opacity="0" result="BackgroundImageFix"/>
<feColorMatrix in="SourceAlpha" type="matrix" values="0 0 0 0 0 0 0 0 0 0 0 0 0 0 0 0 0 0 127 0"/>
<feOffset dy="4"/>
<feGaussianBlur stdDeviation="2"/>
<feColorMatrix type="matrix" values="0 0 0 0 0 0 0 0 0 0 0 0 0 0 0 0 0 0 0.25 0"/>
<feBlend mode="normal" in2="BackgroundImageFix" result="effect1_dropShadow"/>
<feColorMatrix in="SourceAlpha" type="matrix" values="0 0 0 0 0 0 0 0 0 0 0 0 0 0 0 0 0 0 127 0"/>
<feOffset dy="4"/>
<feGaussianBlur stdDeviation="2"/>
<feColorMatrix type="matrix" values="0 0 0 0 0 0 0 0 0 0 0 0 0 0 0 0 0 0 0.25 0"/>
<feBlend mode="normal" in2="effect1_dropShadow" result="effect2_dropShadow"/>
<feColorMatrix in="SourceAlpha" type="matrix" values="0 0 0 0 0 0 0 0 0 0 0 0 0 0 0 0 0 0 127 0"/>
<feOffset dy="4"/>
<feGaussianBlur stdDeviation="2"/>
<feColorMatrix type="matrix" values="0 0 0 0 0 0 0 0 0 0 0 0 0 0 0 0 0 0 0.25 0"/>
<feBlend mode="normal" in2="effect2_dropShadow" result="effect3_dropShadow"/>
<feBlend mode="normal" in="SourceGraphic" in2="effect3_dropShadow" result="shape"/>
</filter>
</defs>
</svg>
